<svg xmlns="http://www.w3.org/2000/svg" width="617.949" height="240" viewBox="0 0 617.949 240"><path d="M127.877 122.962c0-15.914-8.066-29.942-20.34-38.184-8.593-22.445-18.062-42.699-27.97-56.2C42.26-22.32 47.346 7.665 47.346 20.685c0 8.987 1.885 44.715 4.252 67.6a46.547 46.547 0 0 0-9.557 11.529C21.525 53.345 2.236 6.702 0 1.397c1.885 5.7 19.42 58.262 37.526 109.115a46.648 46.648 0 0 0-1.71 12.45c0 15.913 8.066 29.898 20.254 38.183 7.978 20.867 14.817 37.482 18.982 44.496 16.396 27.706 35.64 47.521 35.07 23.76-.306-13.545-2.498-40.55-5.961-66.152 6.4-3.55 11.836-8.592 15.957-14.598 8.46 21.525 17.798 47.039 27.881 77.156-.614-2.893-9.294-43.006-22.62-87.809 1.622-4.69 2.498-9.776 2.498-15.036zm-70.36-61.55c.087-1.797.219-3.595.394-5.348.088-.877.219-1.666.35-2.455.439-2.674 1.009-5.173 1.798-7.233.482-1.316.833-2.017.965-2.192v-.044c2.542-4.779 6.444-5.349 11.748 3.682 3.332 5.656 8.812 15.08 16.089 29.679a46.344 46.344 0 0 0-7.014-.526c-8.943 0-17.316 2.587-24.418 7.014 0-8.373-.132-17.053.087-22.577zM96.62 196.216c-1.71 3.025-4.427 2.63-8.548-3.025-3.551-4.91-8.46-13.677-14.116-24.9 2.586.482 5.217.701 7.89.701 4.867 0 9.558-.745 13.942-2.148 1.14-.35 2.235-.745 3.287-1.184-.876-21.7-4.164-46.995-4.69-51.071 1.227 6.838 12.8 74.437 2.235 81.627zM224.454 67.637V57.028h-43.576c-5.304 0-9.6-4.34-9.6-9.644V29.717c0-5.304 4.296-9.6 9.6-9.6h43.576V9.506h-50.37c-8.33 0-15.17 6.795-15.17 15.125v27.837c0 8.33 6.84 15.168 15.17 15.168h50.37zm10.606 70.873h-43.576c-5.304 0-9.6-4.668-9.6-10.374v-19.002c0-5.706 4.296-10.327 9.6-10.327h43.576v-11.41h-50.37c-8.33 0-15.169 7.308-15.169 16.267v29.942c0 8.959 6.839 16.315 15.168 16.315h50.37V138.51zm-38.387 44.912v29.941c0 8.96 6.839 16.316 15.168 16.316h50.37v-11.412h-43.575c-5.304 0-9.6-4.668-9.6-10.373v-19.003c0-5.705 4.296-10.326 9.6-10.326h43.576v-11.411H211.84c-8.33 0-15.168 7.309-15.168 16.268zm58.865-115.785h50.37V57.028h-43.575c-5.304 0-9.6-4.34-9.6-9.644V29.717c0-5.304 4.296-9.6 9.6-9.6h43.576V9.506h-50.37c-8.33 0-15.17 6.795-15.17 15.125v27.837c0 8.33 6.84 15.168 15.17 15.168zm79.438-58.13H321.88v58.13h13.096V9.507zm-84.701 140.415h45.723c5.436 0 9.908-4.471 9.908-9.907v-22.007c0-2.806-.702-5.436-1.929-7.76-2.806-5.348-8.417-8.987-14.817-8.987h-43.751c-2.762 0-5.042 2.28-5.042 5.042 0 1.578.745 2.981 1.93 3.902.832.701 1.928 1.096 3.112 1.096h42.26c2.674 0 4.866 2.192 4.866 4.91v4.866h-42.26c-5.436 0-9.908 4.471-9.908 9.907v9.03c0 5.437 4.472 9.908 9.908 9.908zm3.068-15.738c0-2.499 2.06-4.559 4.56-4.559h35.027v7.19c0 2.498-2.06 4.559-4.56 4.559h-30.467c-2.5 0-4.56-2.06-4.56-4.56v-2.63zm134.497-32.923h-17.798c-5.919 0-10.74 4.823-10.74 10.74 0-5.917-4.823-10.74-10.741-10.74h-16.527c-8.637 0-15.738 7.059-15.738 15.695v32.966h12.143v-31.388c0-2.718 2.236-4.954 4.954-4.954h14.247c2.718 0 4.954 2.236 4.954 4.954v31.388h13.37v-31.388c0-2.718 2.237-4.954 4.955-4.954h14.247c2.718 0 4.954 2.236 4.954 4.954v31.388h13.721v-32.66c0-8.811-7.19-16-16-16zm74.131 0h-31.958c-8.812 0-16.001 7.19-16.001 15.958v45.986h12.055V149.44c1.272.307 2.587.482 3.946.482h31.958c8.812 0 15.958-7.19 15.958-15.957V117.22c0-8.768-7.146-15.958-15.958-15.958zm3.946 30.03c0 4.077-3.288 7.365-7.321 7.365h-32.529v-18.763c0-4.077 3.288-7.365 7.322-7.365h25.207c4.033 0 7.32 3.288 7.32 7.365v11.398zm73.824-2.324c0 6.226-5.085 11.31-11.31 11.31h-17.229c-6.225 0-11.354-5.084-11.354-11.31v-27.706H487.66v32.441c0 8.9 7.277 16.22 16.22 16.22h31.87c8.944 0 16.221-7.32 16.221-16.22v-32.44h-12.231v27.705zm36.123-17.579h42.085v-10.127h-44.452c-7.76 0-14.116 6.357-14.116 14.117v.307c0 3.9 1.578 7.408 4.164 9.95a13.944 13.944 0 0 0 9.952 4.165h26.917a4.21 4.21 0 0 1 4.208 4.209v1.403a4.21 4.21 0 0 1-4.208 4.208H559.38v10.302h44.496c7.76 0 14.072-6.312 14.072-14.072v-.219c0-3.902-1.578-7.453-4.165-9.995-2.542-2.499-6.006-4.077-9.907-4.077h-28.013a4.303 4.303 0 0 1-4.296-4.296v-1.578a4.303 4.303 0 0 1 4.296-4.297zM313.402 180.04h-31.081c-8.505 0-15.432 6.926-15.432 15.43v18.764c0 8.504 6.927 15.43 15.432 15.43h46.512v-9.863h-40.331c-5.13 0-9.294-4.165-9.294-9.294v-1.359h49.625v-13.677c0-8.505-6.97-15.431-15.43-15.431zm3.113 22.489h-37.307v-3.332c0-5.13 4.165-9.294 9.294-9.294h18.719c5.129 0 9.294 4.165 9.294 9.294v3.332zm218.843-22.49h-31.082c-8.505 0-15.431 6.927-15.431 15.432v18.763c0 8.504 6.926 15.43 15.43 15.43h46.514v-9.863h-40.332c-5.13 0-9.294-4.165-9.294-9.294v-1.359h49.626v-13.677c0-8.505-6.97-15.431-15.431-15.431zm3.112 22.49h-37.307v-3.332c0-5.13 4.165-9.294 9.294-9.294h18.72c5.128 0 9.293 4.165 9.293 9.294v3.332zm-152.156-22.49h-32.511c-9.123 0-16.547 7.469-16.547 16.547v33.093h12.477v-28.263c0-6.35 5.188-11.538 11.538-11.538h17.575c6.35 0 11.582 5.187 11.582 11.538v28.263h12.432v-33.093c0-9.078-7.423-16.546-16.546-16.546zm64.435 16.528v33.098h12.45v-28.232c0-6.357 5.217-11.574 11.573-11.574h3.157v-9.82h-10.653c-9.119 0-16.527 7.453-16.527 16.528zm-24.682-26.479h-12.055v9.952h-6.62v12.493h6.62v37.132h12.055v-37.132h17.098V180.04h-17.098v-9.952z" fill="#0058a5"/><path d="M96.62 196.216c2.63-4.56 3.025-16.834 2.455-30.556-.876-21.7-4.164-46.995-4.69-51.071 1.227 6.838 12.8 74.437 2.235 81.627z" fill="#fff"/><radialGradient id="a" cx="65.157" cy="98.163" r="7.354" gradientUnits="userSpaceOnUse"><stop offset="0" stop-color="#fff"/><stop offset="1" stop-color="#fff" stop-opacity="0"/></radialGradient><circle cx="65.157" cy="98.163" r="7.354" fill="url(#a)"/></svg>