<?xml version="1.0" standalone="no"?>
<!DOCTYPE svg PUBLIC "-//W3C//DTD SVG 20010904//EN"
 "http://www.w3.org/TR/2001/REC-SVG-20010904/DTD/svg10.dtd">
<svg version="1.0" xmlns="http://www.w3.org/2000/svg"
 width="128.000000pt" height="128.000000pt" viewBox="0 0 128.000000 128.000000"
 preserveAspectRatio="xMidYMid meet">

<g transform="translate(0.000000,128.000000) scale(0.100000,-0.100000)"
fill="#000000" stroke="none">
<path d="M34 1246 l-34 -34 0 -572 0 -572 34 -34 34 -34 572 0 572 0 34 34 34
34 0 572 0 572 -34 34 -34 34 -572 0 -572 0 -34 -34z m488 -412 l3 -146 99
146 99 146 99 0 c77 0 97 -3 92 -12 -4 -7 -52 -71 -107 -142 -54 -70 -101
-134 -103 -141 -3 -7 45 -95 105 -195 61 -100 111 -184 111 -186 0 -2 -42 -4
-94 -4 l-95 0 -71 126 -72 126 -34 -33 c-34 -33 -34 -33 -34 -126 l0 -93 -80
0 -80 0 0 340 0 340 80 0 79 0 3 -146z"/>
</g>
</svg>
